<svg width="200" height="200" viewBox="0 0 200 200" fill="none" xmlns="http://www.w3.org/2000/svg">
<g id="Add_PostIt_Btn">
<rect width="200" height="200" rx="5" fill="#272627"/>
<rect id="Rectangle 99" x="50" y="50" width="100" height="100" fill="#3B3B3B"/>
<path id="Vector 15" d="M148 111L148 148L111 148L148 111Z" fill="#2E2E2E"/>
<path id="Vector 14" d="M84.3333 89.3333H73C70.2386 89.3333 68 91.5719 68 94.3333V105.667C68 108.428 70.2386 110.667 73 110.667H84.3333C87.0948 110.667 89.3333 112.905 89.3333 115.667V127C89.3333 129.761 91.5719 132 94.3333 132H105.667C108.428 132 110.667 129.761 110.667 127V115.667C110.667 112.905 112.905 110.667 115.667 110.667H127C129.761 110.667 132 108.428 132 105.667V94.3333C132 91.5719 129.761 89.3333 127 89.3333H115.667C112.905 89.3333 110.667 87.0948 110.667 84.3333V73C110.667 70.2386 108.428 68 105.667 68H94.3333C91.5719 68 89.3333 70.2386 89.3333 73V84.3333C89.3333 87.0948 87.0948 89.3333 84.3333 89.3333Z" fill="#2E2E2E"/>
</g>
</svg>
