<?xml version="1.0" encoding="UTF-8"?>
<!-- Generator: Blender, SVG Export for Grease Pencil - v1.0 -->
<!DOCTYPE svg PUBLIC "-//W3C//DTD SVG 1.1//EN" "http://www.w3.org/Graphics/SVG/1.1/DTD/svg11.dtd">
<svg version="1.0" x="0px" y="0px" xmlns="http://www.w3.org/2000/svg" width="666px" height="654px" viewBox="0 0 666 654">
	<g id="blender_frame_1">
		<g id="blender_object_GPencil">
			<!--Layer: GP_Layer-->
			<g id="GP_Layer">
				<polygon stroke="#CBCBCB" stroke-opacity="1" fill="none" stroke-linecap="round" stroke-width="2.63293457" points="391.375275,77.086060 383.589386,13.958618 332.703094,10.000000 281.826752,14.085449 274.198212,77.232178 281.856354,110.592773 233.461395,127.594604 190.063019,154.939148 168.688690,128.205017 114.479156,94.932983 79.657074,132.249390 51.130432,174.573303 95.744171,219.908813 126.601288,234.721497 109.720062,283.158691 104.040497,334.137909 69.812225,334.180573 10.000000,355.818512 17.463959,406.309875 32.768036,455.001526 96.028961,448.387268 126.849091,433.497742 154.193573,476.896118 190.509552,513.121643 169.201935,539.908997 148.826874,600.163086 192.956268,625.808411 240.566864,644.201904 274.838226,590.618591 282.413116,557.239014 333.392365,562.918640 384.357269,557.111877 392.015350,590.472595 426.420258,643.970215 473.984833,625.458069 518.050171,599.702820 497.524933,539.499695 476.150543,512.765564 512.376099,476.449585 539.612305,432.983215 570.469482,447.795837 633.746704,454.252319 648.929321,405.522675 656.267334,355.012848 596.401367,333.524078 562.172974,333.566772 556.366333,282.601898 539.364502,234.206909 570.184570,219.317383 614.685181,173.870789 586.052979,131.618103 551.137939,94.388611 497.011627,127.795715 475.704010,154.583069 432.237640,127.346863 383.800446,110.465637" />
				<polygon stroke="#CBCBCB" stroke-opacity="1" fill="none" stroke-linecap="round" stroke-width="2.63293457" points="461.416840,304.398071 451.645660,276.584869 435.930450,251.643311 415.059235,230.823975 390.078583,215.171021 362.241058,205.469238 332.942657,202.205078 303.652496,205.542236 275.839325,215.313477 250.897736,231.028687 230.078461,251.899902 214.425446,276.880585 204.723663,304.718079 201.459503,334.016449 204.796661,363.306641 214.567902,391.119843 230.283112,416.061401 251.154327,436.880676 276.135040,452.533691 303.972504,462.235535 333.270905,465.499634 362.561066,462.162415 390.374298,452.391235 415.315887,436.676025 436.135162,415.804749 451.788116,390.824127 461.489899,362.986633 464.754059,333.688263 461.450226,304.690979" />
			</g>
		</g>
	</g>
</svg>
