<svg width="134" height="132" viewBox="0 0 134 132" fill="none" xmlns="http://www.w3.org/2000/svg">
<g clip-path="url(#clip0)">
<g filter="url(#filter0_d)">
<path fill-rule="evenodd" clip-rule="evenodd" d="M77.1786 2.81736L78.7451 15.5587L77.2211 22.2958L86.9667 25.7031L95.7122 31.2003L99.9993 25.7937L110.89 19.0509L117.915 26.5651L123.675 35.0932L114.722 44.2659L108.521 47.2711L111.942 57.0389L113.11 67.3254L119.997 67.3168L132.042 71.654L130.565 81.8486L127.511 91.684L114.779 90.3808L108.571 87.3911L103.091 96.1642L95.802 103.494L100.103 108.89L104.232 121.041L95.3663 126.239L85.7962 129.976L78.8739 119.178L77.3331 112.445L67.0789 113.617L56.8218 112.47L55.2977 119.207L48.4023 130.022L38.823 126.31L29.9441 121.134L34.0436 108.972L38.3307 103.566L31.0239 96.2543L25.5221 87.495L19.3211 90.5002L6.59292 91.8352L3.51372 82.0075L2.01196 71.8166L14.0463 67.4493L20.933 67.4407L22.0758 57.1513L25.4723 47.375L19.2638 44.3853L10.2875 35.235L16.0271 26.6926L23.0333 19.1608L33.9403 25.8763L38.2409 31.2721L46.9727 25.7531L56.7098 22.3215L55.169 15.5882L56.7038 2.84296L66.9402 2.01837L77.1786 2.81736ZM90.8717 55.8245L92.8377 61.4382L92.8444 61.4973L93.5091 67.35L92.8524 73.2634L90.9004 78.882L87.751 83.9239L83.5621 88.1365L78.5438 91.3084L72.9478 93.2805L67.0546 93.9541L61.1597 93.2953L55.5587 91.3371L50.5326 88.1778L46.3333 83.9757L43.1714 78.9417L41.2054 73.328L40.5339 67.4162L41.1907 61.5028L43.1427 55.8842L46.2921 50.8422L50.481 46.6297L55.4992 43.4578L61.0953 41.4856L66.9885 40.8121L72.8834 41.4709L78.4843 43.4291L83.5105 46.5884L87.7098 50.7904L90.8717 55.8245Z" fill="#838383"/>
</g>
</g>
<defs>
<filter id="filter0_d" x="2.01196" y="2.01837" width="130.03" height="131.004" filterUnits="userSpaceOnUse" color-interpolation-filters="sRGB">
<feFlood flood-opacity="0" result="BackgroundImageFix"/>
<feColorMatrix in="SourceAlpha" type="matrix" values="0 0 0 0 0 0 0 0 0 0 0 0 0 0 0 0 0 0 127 0" result="hardAlpha"/>
<feOffset dy="3"/>
<feComposite in2="hardAlpha" operator="out"/>
<feColorMatrix type="matrix" values="0 0 0 0 0 0 0 0 0 0 0 0 0 0 0 0 0 0 0.25 0"/>
<feBlend mode="normal" in2="BackgroundImageFix" result="effect1_dropShadow"/>
<feBlend mode="normal" in="SourceGraphic" in2="effect1_dropShadow" result="shape"/>
</filter>
<clipPath id="clip0">
<rect width="134" height="132" fill="white"/>
</clipPath>
</defs>
</svg>
