<svg width="199" height="35" viewBox="0 0 199 35" fill="none" xmlns="http://www.w3.org/2000/svg">
<g id="Pencil_Opt">
<path id="Vector 16" d="M175 26.25L198.333 17.5L175 8.75003L175 26.25Z" fill="#454545"/>
<path id="Vector 17" d="M151.667 35L175 26.25L175 8.75003L151.667 2.84777e-05L151.667 35Z" fill="#A3906A"/>
<path id="Vector 18" d="M23.3333 35L151.667 35L151.667 29.1667L23.3333 29.1667L23.3333 35Z" fill="#9C9836"/>
<path id="Vector 21" d="M23.3333 5.83333L151.667 5.83334L151.667 1.00136e-05L23.3333 -1.20568e-06L23.3333 5.83333Z" fill="#737028"/>
<path id="Vector 19" d="M23.3333 29.1667L151.667 29.1667L151.667 17.5001L23.3333 17.5L23.3333 29.1667Z" fill="#C1BC45"/>
<path id="Vector 20" d="M23.3333 17.5L151.667 17.5L151.667 5.83336L23.3333 5.83335L23.3333 17.5Z" fill="#A19D3A"/>
<path id="Rectangle 105" d="M23.3333 35L17.5 35L17.5 -5.09966e-07L23.3333 0L23.3333 35Z" fill="#979797"/>
<path id="Rectangle 106" d="M17.5 35L5 35C2.23858 35 1.95703e-07 32.7614 4.37114e-07 30L2.62268e-06 5C2.86409e-06 2.23857 2.23858 -1.3342e-06 5 -1.09278e-06L17.5 0L17.5 35Z" fill="#AD5060"/>
<g id="Group 8">
<g id="Group 11">
<rect id="Rectangle 107" x="145.333" y="33" width="31" height="31" rx="5" transform="rotate(-180 145.333 33)" fill="#3D3C27"/>
<path id="Vector" d="M126.491 27.2766L118.366 19.1516C117.878 18.6635 117.878 17.8721 118.366 17.3839L120.134 15.6161C120.622 15.1279 121.413 15.1279 121.902 15.6161L127.375 21.0894L139.098 9.3661C139.587 8.87797 140.378 8.87797 140.866 9.3661L142.634 11.1339C143.122 11.622 143.122 12.4135 142.634 12.9016L128.259 27.2767C127.771 27.7648 126.979 27.7648 126.491 27.2766V27.2766Z" fill="#43DA36"/>
</g>
<g id="Group 12">
<rect id="Rectangle 108" x="102.333" y="33" width="31" height="31" rx="5" transform="rotate(-180 102.333 33)" fill="#3D3C27"/>
<path id="Vector_2" d="M83.1553 21.1045C81.1963 21.2305 79.4185 21.9766 78.4097 24.6348C78.2949 24.938 78.019 25.1221 77.6973 25.1221C77.1548 25.1221 75.4775 23.771 74.9995 23.4448C75 27.4658 76.8521 31 81.25 31C84.9541 31 87.5 28.8628 87.5 25.1313C87.5 24.9795 87.4683 24.8345 87.4526 24.6855L83.1553 21.1045V21.1045ZM97.3579 6C96.6177 6 95.9238 6.32764 95.3945 6.80322C85.4136 15.7192 84.375 15.9287 84.375 18.5532C84.375 19.2222 84.5337 19.8599 84.8013 20.4429L87.9175 23.0396C88.2695 23.1274 88.6323 23.1875 89.0107 23.1875C92.0435 23.1875 93.8013 20.9673 99.3213 10.665C99.6816 9.96436 100 9.20752 100 8.41943C100 7.00781 98.7305 6 97.3579 6Z" fill="#DA3698"/>
</g>
<g id="Group 10">
<rect id="Rectangle 109" x="59.3333" y="33" width="31" height="31" rx="5" transform="rotate(-180 59.3333 33)" fill="#3D3C27"/>
<path id="Vector_3" d="M55.3136 18.8135C56.2288 17.8982 56.2288 16.4143 55.3136 15.499L47.5011 7.68648C46.5858 6.7712 45.1018 6.77115 44.1865 7.68648L31.6865 20.1865C30.7712 21.1018 30.7712 22.5857 31.6865 23.501L36.374 28.1885C36.8135 28.6281 37.4097 28.875 38.0313 28.875H55.4141C55.7377 28.875 56 28.6127 56 28.2891V26.3359C56 26.0124 55.7377 25.75 55.4141 25.75H48.3771L55.3136 18.8135V18.8135ZM40.5369 15.7556L47.2445 22.4632L43.9577 25.75H38.3549L34.4487 21.8438L40.5369 15.7556V15.7556Z" fill="#DA3636"/>
</g>
</g>
</g>
</svg>
