<svg width="199" height="35" viewBox="0 0 199 35" fill="none" xmlns="http://www.w3.org/2000/svg">
<g id="Pencil_Opt">
<path id="Vector 16" d="M175 26.25L198.333 17.5L175 8.75003L175 26.25Z" fill="#454545"/>
<path id="Vector 17" d="M151.667 35L175 26.25L175 8.75003L151.667 2.84777e-05L151.667 35Z" fill="#A3906A"/>
<path id="Vector 18" d="M23.3333 35L151.667 35L151.667 29.1667L23.3333 29.1667L23.3333 35Z" fill="#9C9836"/>
<path id="Vector 21" d="M23.3333 5.83333L151.667 5.83334L151.667 1.00136e-05L23.3333 -1.20568e-06L23.3333 5.83333Z" fill="#737028"/>
<path id="Vector 19" d="M23.3333 29.1667L151.667 29.1667L151.667 17.5001L23.3333 17.5L23.3333 29.1667Z" fill="#C1BC45"/>
<path id="Vector 20" d="M23.3333 17.5L151.667 17.5L151.667 5.83336L23.3333 5.83335L23.3333 17.5Z" fill="#A19D3A"/>
<path id="Rectangle 105" d="M23.3333 35L17.5 35L17.5 -5.09966e-07L23.3333 0L23.3333 35Z" fill="#979797"/>
<path id="Rectangle 106" d="M17.5 35L5 35C2.23858 35 1.95703e-07 32.7614 4.37114e-07 30L2.62268e-06 5C2.86409e-06 2.23857 2.23858 -1.3342e-06 5 -1.09278e-06L17.5 0L17.5 35Z" fill="#AD5060"/>
<g id="Group 8">
<rect id="Rectangle 107" x="145.333" y="33" width="31" height="31" rx="5" transform="rotate(-180 145.333 33)" fill="#3D3C27"/>
<rect id="Rectangle 108" x="102.333" y="33" width="31" height="31" rx="5" transform="rotate(-180 102.333 33)" fill="#3D3C27"/>
<rect id="Rectangle 109" x="59.3333" y="33" width="31" height="31" rx="5" transform="rotate(-180 59.3333 33)" fill="#3D3C27"/>
</g>
</g>
</svg>
